<?xml version="1.0" standalone="no"?><!-- Generator: Gravit.io --><svg xmlns="http://www.w3.org/2000/svg" xmlns:xlink="http://www.w3.org/1999/xlink" style="isolation:isolate" viewBox="0 0 1089 200" width="1089" height="200"><defs><clipPath id="_clipPath_rEZFi9gxyxgr3DcXm7kVzA7IQ5cGb1Pq"><rect width="1089" height="200"/></clipPath></defs><g clip-path="url(#_clipPath_rEZFi9gxyxgr3DcXm7kVzA7IQ5cGb1Pq)"><g id="XMLID_1_"><g id="XMLID_50_"><g id="XMLID_72_"><path d=" M 122.466 90.603 L 70.081 0.028 L 0 0.028 L 57.784 100 L 0 199.972 L 70.081 199.972 L 122.466 109.397 C 125.765 103.599 125.765 96.401 122.466 90.603 L 122.466 90.603 Z " fill="none"/><path d=" M 92.375 159.784 L 75.779 131.091 L 35.89 199.972 L 70.081 199.972 L 92.874 160.583 L 92.375 159.784 Z " fill="rgb(255,193,7)"/><path d=" M 122.466 90.603 L 70.081 0.028 L 0 0.028 L 57.784 100 L 0 199.972 L 70.081 199.972 L 122.466 109.397 C 125.765 103.599 125.765 96.401 122.466 90.603 L 122.466 90.603 Z " fill="none"/><path d=" M 57.784 100 L 75.779 131.091 L 35.89 199.972 L 0 199.972 L 57.784 100 Z " fill="rgb(15,157,88)"/><path d=" M 122.466 90.603 L 70.081 0.028 L 0 0.028 L 57.784 100 L 0 199.972 L 70.081 199.972 L 122.466 109.397 C 125.765 103.599 125.765 96.401 122.466 90.603 L 122.466 90.603 Z " fill="none"/><g opacity="0.2"><path d=" M 70.081 198.373 L 36.79 198.373 L 35.89 199.972 L 70.081 199.972 L 92.874 160.583 L 92.375 159.784 L 70.081 198.373 Z " fill="rgb(191,54,12)"/></g><path d=" M 122.466 90.603 L 70.081 0.028 L 0 0.028 L 57.784 100 L 0 199.972 L 70.081 199.972 L 122.466 109.397 C 125.765 103.599 125.765 96.401 122.466 90.603 L 122.466 90.603 Z " fill="none"/><g opacity="0.2"><path d=" M 0.9 198.373 L 0 199.972 L 35.89 199.972 L 36.79 198.373 L 0.9 198.373 Z " fill="rgb(38,50,56)"/></g><path d=" M 122.466 90.603 L 70.081 0.028 L 0 0.028 L 57.784 100 L 0 199.972 L 70.081 199.972 L 122.466 109.397 C 125.765 103.599 125.765 96.401 122.466 90.603 L 122.466 90.603 Z " fill="none"/><g opacity="0.2"><path d=" M 0 199.972 L 0.9 199.972 L 58.284 100.8 L 57.784 100 L 0 199.972 Z " fill="rgb(255,255,255)"/></g><path d=" M 122.466 90.603 L 70.081 0.028 L 0 0.028 L 57.784 100 L 0 199.972 L 70.081 199.972 L 122.466 109.397 C 125.765 103.599 125.765 96.401 122.466 90.603 L 122.466 90.603 Z " fill="none"/><radialGradient id="_rgradient_36" fx="98.68397887323938%" fy="97.82754237288147%" cx="98.68397887323938%" cy="97.82754237288147%" r="48.12036869690945%" gradientTransform="matrix(-1 0 0 -1 0 0)"><stop offset="0%" stop-opacity="0.2" style="stop-color:rgb(191,54,12)"/><stop offset="100%" stop-opacity="0.02" style="stop-color:rgb(191,54,12)"/></radialGradient><path d=" M 92.874 160.583 L 75.779 131.091 L 71.58 138.289 L 92.874 160.583 Z " fill="url(#_rgradient_36)"/><path d=" M 122.466 90.603 L 70.081 0.028 L 0 0.028 L 57.784 100 L 0 199.972 L 70.081 199.972 L 122.466 109.397 C 125.765 103.599 125.765 96.401 122.466 90.603 L 122.466 90.603 Z " fill="none"/><radialGradient id="_rgradient_37" fx="162.73349056603777%" fy="157.69353785900796%" cx="162.73349056603777%" cy="157.69353785900796%" r="59.38641507742645%" gradientTransform="matrix(-1 0 0 -1 0 0)"><stop offset="0%" stop-opacity="0.2" style="stop-color:rgb(38,50,56)"/><stop offset="100%" stop-opacity="0.02" style="stop-color:rgb(38,50,56)"/></radialGradient><path d=" M 71.58 138.289 L 75.779 131.091 L 57.784 100 L 49.286 114.796 L 71.58 138.289 Z " fill="url(#_rgradient_37)"/><path d=" M 122.466 90.603 L 70.081 0.028 L 0 0.028 L 57.784 100 L 0 199.972 L 70.081 199.972 L 122.466 109.397 C 125.765 103.599 125.765 96.401 122.466 90.603 L 122.466 90.603 Z " fill="none"/><g id="XMLID_75_"><g id="XMLID_76_"><path d=" M 35.89 0.028 L 0 0.028 L 92.874 160.583 L 110.769 129.492 L 35.89 0.028 Z " fill="rgb(66,133,244)"/></g></g><path d=" M 122.466 90.603 L 70.081 0.028 L 0 0.028 L 57.784 100 L 0 199.972 L 70.081 199.972 L 122.466 109.397 C 125.765 103.599 125.765 96.401 122.466 90.603 L 122.466 90.603 Z " fill="none"/><path d=" M 122.466 109.397 C 125.865 103.599 125.865 96.401 122.466 90.603 L 70.081 0.028 L 35.89 0.028 L 110.769 129.492 L 122.466 109.397 L 122.466 109.397 Z " fill="rgb(219,68,55)"/><path d=" M 122.466 90.603 L 70.081 0.028 L 0 0.028 L 57.784 100 L 0 199.972 L 70.081 199.972 L 122.466 109.397 C 125.765 103.599 125.765 96.401 122.466 90.603 L 122.466 90.603 Z " fill="none"/><g opacity="0.2"><path d=" M 110.769 129.492 L 110.37 128.692 L 92.874 158.984 L 0.9 0.028 L 0 0.028 L 92.874 160.583 L 110.769 129.492 L 110.769 129.492 Z " fill="rgb(26,35,126)"/></g><path d=" M 122.466 90.603 L 70.081 0.028 L 0 0.028 L 57.784 100 L 0 199.972 L 70.081 199.972 L 122.466 109.397 C 125.765 103.599 125.765 96.401 122.466 90.603 L 122.466 90.603 Z " fill="none"/><g opacity="0.2"><path d=" M 70.081 1.627 L 122.466 92.202 C 123.966 94.901 124.766 97.801 124.966 100.8 C 125.066 97.301 124.266 93.802 122.466 90.603 L 70.081 0.028 L 0 0.028 L 0.9 1.627 L 70.081 1.627 L 70.081 1.627 Z " fill="rgb(255,255,255)"/></g><path d=" M 122.466 90.603 L 70.081 0.028 L 0 0.028 L 57.784 100 L 0 199.972 L 70.081 199.972 L 122.466 109.397 C 125.765 103.599 125.765 96.401 122.466 90.603 L 122.466 90.603 Z " fill="none"/><g opacity="0.2"><path d=" M 110.769 129.492 L 122.366 109.397 C 124.166 106.298 124.966 102.699 124.866 99.2 C 124.766 102.199 123.966 105.099 122.366 107.798 L 110.27 128.692 L 110.769 129.492 Z " fill="rgb(62,39,35)"/></g><path d=" M 122.466 90.603 L 70.081 0.028 L 0 0.028 L 57.784 100 L 0 199.972 L 70.081 199.972 L 122.466 109.397 C 125.765 103.599 125.765 96.401 122.466 90.603 L 122.466 90.603 Z " fill="none"/><radialGradient id="_rgradient_38" fx="-1.249499899980025%" fy="0.7811250000000028%" cx="-1.249499899980025%" cy="0.7811250000000028%" r="93.02195757350205%" gradientTransform="matrix(-1 0 0 -1 0 0)"><stop offset="0%" stop-opacity="0.1" style="stop-color:rgb(255,255,255)"/><stop offset="100%" stop-opacity="0" style="stop-color:rgb(255,255,255)"/></radialGradient><path d=" M 122.466 90.603 L 70.081 0.028 L 0 0.028 L 57.784 100 L 0 199.972 L 70.081 199.972 L 122.466 109.397 C 125.765 103.599 125.765 96.401 122.466 90.603 L 122.466 90.603 Z " fill="url(#_rgradient_38)"/></g></g></g><g transform="matrix(1,0,0,1,167,21.851)"><text transform="matrix(1,0,0,1,0,125.684)" style="font-family:&quot;Gregory Packaging&quot;;font-weight:400;font-size:150px;font-style:normal;fill:#607d8b;stroke:none;">GDG Ghana</text></g></g></svg>