<?xml version="1.0" standalone="no"?><!-- Generator: Gravit.io --><svg xmlns="http://www.w3.org/2000/svg" xmlns:xlink="http://www.w3.org/1999/xlink" style="isolation:isolate" viewBox="0 0 839 200" width="839" height="200"><defs><clipPath id="_clipPath_LbJax7VmXcplBmmbebKh5PJzpXX5R7YO"><rect width="839" height="200"/></clipPath></defs><g clip-path="url(#_clipPath_LbJax7VmXcplBmmbebKh5PJzpXX5R7YO)"><clipPath id="_clipPath_F7ncgFfBHIefC6QV9BhLalmUajlQhxjy"><rect x="0" y="0" width="839" height="200" transform="matrix(1,0,0,1,0,0)" fill="rgb(255,255,255)"/></clipPath><g clip-path="url(#_clipPath_F7ncgFfBHIefC6QV9BhLalmUajlQhxjy)"><g id="Group"><clipPath id="_clipPath_i1tgdToqRlG17u1dMqU2BG6XFQKsOu90"><rect x="0" y="0" width="839" height="200" transform="matrix(1,0,0,1,0,0)" fill="rgb(255,255,255)"/></clipPath><g clip-path="url(#_clipPath_i1tgdToqRlG17u1dMqU2BG6XFQKsOu90)"><g id="Group"><g id="Group"><g id="XMLID_60_"><g id="XMLID_61_"><g id="XMLID_62_"><path d=" M 122.5 90.6 L 70.1 0 L 0 0 L 57.8 100 L 0 200 L 70.1 200 L 122.5 109.4 C 125.8 103.6 125.8 96.4 122.5 90.6 L 122.5 90.6 L 122.5 90.6 L 122.5 90.6 Z " fill="none"/><path d=" M 92.4 159.8 L 75.8 131.1 L 35.9 200 L 70.1 200 L 92.9 160.6 L 92.4 159.8 L 92.4 159.8 L 92.4 159.8 Z " fill="rgb(255,193,7)"/><path d=" M 122.5 90.6 L 70.1 0 L 0 0 L 57.8 100 L 0 200 L 70.1 200 L 122.5 109.4 C 125.8 103.6 125.8 96.4 122.5 90.6 L 122.5 90.6 L 122.5 90.6 L 122.5 90.6 Z " fill="none"/><path d=" M 57.8 100 L 75.8 131.1 L 35.9 200 L 0 200 L 57.8 100 L 57.8 100 L 57.8 100 Z " fill="rgb(15,157,88)"/><path d=" M 122.5 90.6 L 70.1 0 L 0 0 L 57.8 100 L 0 200 L 70.1 200 L 122.5 109.4 C 125.8 103.6 125.8 96.4 122.5 90.6 L 122.5 90.6 L 122.5 90.6 L 122.5 90.6 Z " fill="none"/><g id="Group" style="opacity:0.2;"><g id="Group" style="opacity:0.2;"><g opacity="0.2"><path d=" M 70.1 198.4 L 36.8 198.4 L 35.9 200 L 70.1 200 L 92.9 160.6 L 92.4 159.8 L 70.1 198.4 L 70.1 198.4 L 70.1 198.4 Z " fill="rgb(191,54,12)"/></g></g></g><path d=" M 122.5 90.6 L 70.1 0 L 0 0 L 57.8 100 L 0 200 L 70.1 200 L 122.5 109.4 C 125.8 103.6 125.8 96.4 122.5 90.6 L 122.5 90.6 L 122.5 90.6 L 122.5 90.6 Z " fill="none"/><g id="Group" style="opacity:0.2;"><g id="Group" style="opacity:0.2;"><g opacity="0.2"><path d=" M 0.9 198.4 L 0 200 L 35.9 200 L 36.8 198.4 L 0.9 198.4 L 0.9 198.4 L 0.9 198.4 Z " fill="rgb(38,50,56)"/></g></g></g><path d=" M 122.5 90.6 L 70.1 0 L 0 0 L 57.8 100 L 0 200 L 70.1 200 L 122.5 109.4 C 125.8 103.6 125.8 96.4 122.5 90.6 L 122.5 90.6 L 122.5 90.6 L 122.5 90.6 Z " fill="none"/><g id="Group" style="opacity:0.2;"><g id="Group" style="opacity:0.2;"><g opacity="0.2"><path d=" M 0 200 L 0.9 200 L 58.3 100.8 L 57.8 100 L 0 200 L 0 200 L 0 200 Z " fill="rgb(255,255,255)"/></g></g></g><path d=" M 122.5 90.6 L 70.1 0 L 0 0 L 57.8 100 L 0 200 L 70.1 200 L 122.5 109.4 C 125.8 103.6 125.8 96.4 122.5 90.6 L 122.5 90.6 L 122.5 90.6 L 122.5 90.6 Z " fill="none"/><radialGradient id="_rgradient_27" fx="98.68544600938964%" fy="97.82711864406721%" cx="98.68544600938964%" cy="97.82711864406721%" r="30.797258610219476%" gradientTransform="matrix(-1 0 0 -1 0 0)"><stop offset="0%" stop-opacity="0.2" style="stop-color:rgb(191,54,12)"/><stop offset="100%" stop-opacity="0.02" style="stop-color:rgb(191,54,12)"/></radialGradient><path d=" M 92.9 160.6 L 75.8 131.1 L 71.6 138.3 L 92.9 160.6 L 92.9 160.6 L 92.9 160.6 Z " fill="url(#_rgradient_27)"/><path d=" M 122.5 90.6 L 70.1 0 L 0 0 L 57.8 100 L 0 200 L 70.1 200 L 122.5 109.4 C 125.8 103.6 125.8 96.4 122.5 90.6 L 122.5 90.6 L 122.5 90.6 L 122.5 90.6 Z " fill="none"/><radialGradient id="_rgradient_28" fx="162.72830188679248%" fy="157.6945169712792%" cx="162.72830188679248%" cy="157.6945169712792%" r="38.00754413894985%" gradientTransform="matrix(-1 0 0 -1 0 0)"><stop offset="0%" stop-opacity="0.2" style="stop-color:rgb(38,50,56)"/><stop offset="100%" stop-opacity="0.02" style="stop-color:rgb(38,50,56)"/></radialGradient><path d=" M 71.6 138.3 L 75.8 131.1 L 57.8 100 L 49.3 114.8 L 71.6 138.3 L 71.6 138.3 L 71.6 138.3 Z " fill="url(#_rgradient_28)"/><path d=" M 122.5 90.6 L 70.1 0 L 0 0 L 57.8 100 L 0 200 L 70.1 200 L 122.5 109.4 C 125.8 103.6 125.8 96.4 122.5 90.6 L 122.5 90.6 L 122.5 90.6 L 122.5 90.6 Z " fill="none"/><g id="XMLID_85_"><g id="XMLID_86_"><path d=" M 35.9 0 L 0 0 L 92.9 160.6 L 110.8 129.5 L 35.9 0 L 35.9 0 L 35.9 0 Z " fill="rgb(66,133,244)"/></g></g><path d=" M 122.5 90.6 L 70.1 0 L 0 0 L 57.8 100 L 0 200 L 70.1 200 L 122.5 109.4 C 125.8 103.6 125.8 96.4 122.5 90.6 L 122.5 90.6 L 122.5 90.6 L 122.5 90.6 Z " fill="none"/><path d=" M 122.5 109.4 C 125.9 103.6 125.9 96.4 122.5 90.6 L 70.1 0 L 35.9 0 L 110.8 129.5 L 122.5 109.4 L 122.5 109.4 L 122.5 109.4 L 122.5 109.4 Z " fill="rgb(219,68,55)"/><path d=" M 122.5 90.6 L 70.1 0 L 0 0 L 57.8 100 L 0 200 L 70.1 200 L 122.5 109.4 C 125.8 103.6 125.8 96.4 122.5 90.6 L 122.5 90.6 L 122.5 90.6 L 122.5 90.6 Z " fill="none"/><g id="Group" style="opacity:0.2;"><g id="Group" style="opacity:0.2;"><g opacity="0.2"><path d=" M 110.8 129.5 L 110.4 128.7 L 92.9 159 L 0.9 0 L 0 0 L 92.9 160.6 L 110.8 129.5 L 110.8 129.5 L 110.8 129.5 L 110.8 129.5 Z " fill="rgb(26,35,126)"/></g></g></g><path d=" M 122.5 90.6 L 70.1 0 L 0 0 L 57.8 100 L 0 200 L 70.1 200 L 122.5 109.4 C 125.8 103.6 125.8 96.4 122.5 90.6 L 122.5 90.6 L 122.5 90.6 L 122.5 90.6 Z " fill="none"/><g id="Group" style="opacity:0.2;"><g id="Group" style="opacity:0.2;"><g opacity="0.2"><path d=" M 70.1 1.6 L 122.5 92.2 C 124 94.9 124.8 97.8 125 100.8 C 125.1 97.3 124.3 93.8 122.5 90.6 L 70.1 0 L 0 0 L 0.9 1.6 L 70.1 1.6 L 70.1 1.6 L 70.1 1.6 L 70.1 1.6 Z " fill="rgb(255,255,255)"/></g></g></g><path d=" M 122.5 90.6 L 70.1 0 L 0 0 L 57.8 100 L 0 200 L 70.1 200 L 122.5 109.4 C 125.8 103.6 125.8 96.4 122.5 90.6 L 122.5 90.6 L 122.5 90.6 L 122.5 90.6 Z " fill="none"/><g id="Group" style="opacity:0.2;"><g id="Group" style="opacity:0.2;"><g opacity="0.2"><path d=" M 110.8 129.5 L 122.4 109.4 C 124.2 106.3 125 102.7 124.9 99.2 C 124.8 102.2 124 105.1 122.4 107.8 L 110.3 128.7 L 110.8 129.5 L 110.8 129.5 L 110.8 129.5 L 110.8 129.5 Z " fill="rgb(62,39,35)"/></g></g></g><path d=" M 122.5 90.6 L 70.1 0 L 0 0 L 57.8 100 L 0 200 L 70.1 200 L 122.5 109.4 C 125.8 103.6 125.8 96.4 122.5 90.6 L 122.5 90.6 L 122.5 90.6 L 122.5 90.6 Z " fill="none"/><radialGradient id="_rgradient_29" fx="-1.2506501300260051%" fy="0.780999999999949%" cx="-1.2506501300260051%" cy="0.780999999999949%" r="59.53401739693791%" gradientTransform="matrix(-1 0 0 -1 0 0)"><stop offset="0%" stop-opacity="0.1" style="stop-color:rgb(255,255,255)"/><stop offset="100%" stop-opacity="0" style="stop-color:rgb(255,255,255)"/></radialGradient><path d=" M 122.5 90.6 L 70.1 0 L 0 0 L 57.8 100 L 0 200 L 70.1 200 L 122.5 109.4 C 125.8 103.6 125.8 96.4 122.5 90.6 L 122.5 90.6 L 122.5 90.6 L 122.5 90.6 Z " fill="url(#_rgradient_29)"/></g></g></g><g id="Group"><g id="Group"><g transform="matrix(1,0,0,1,141.682,35)"><text transform="matrix(1,0,0,1,0,60.328)" style="font-family:&quot;Gregory Packaging&quot;;font-weight:400;font-size:72px;font-style:normal;fill:#FFFFFF;stroke:none;">GDG dEVFEST             </text></g></g><g id="Group"><g transform="matrix(1,0,0,1,287,112.953)"><text transform="matrix(1,0,0,1,0,60.328)" style="font-family:&quot;Gregory Packaging&quot;;font-weight:400;font-size:72px;font-style:normal;fill:#FFFFFF;stroke:none;">GHANA 2017</text></g></g></g></g></g></g></g></g></g></svg>