<?xml version="1.0" standalone="no"?><!-- Generator: Gravit.io --><svg xmlns="http://www.w3.org/2000/svg" xmlns:xlink="http://www.w3.org/1999/xlink" style="isolation:isolate" viewBox="0 0 839 200" width="839" height="200"><defs><clipPath id="_clipPath_2PyOuOIiV5GCvowXKUfb7Gk6Ajmc1iJt"><rect width="839" height="200"/></clipPath></defs><g clip-path="url(#_clipPath_2PyOuOIiV5GCvowXKUfb7Gk6Ajmc1iJt)"><clipPath id="_clipPath_GKeHKOqjeWESjd9DvPAdKeszDbfSOpGn"><rect x="0" y="0" width="839" height="200" transform="matrix(1,0,0,1,0,0)" fill="rgb(255,255,255)"/></clipPath><g clip-path="url(#_clipPath_GKeHKOqjeWESjd9DvPAdKeszDbfSOpGn)"><g id="Group"><clipPath id="_clipPath_1Qgqq0ZDVSE4Raww6xBEouk2LVHriUfq"><rect x="0" y="0" width="839" height="200" transform="matrix(1,0,0,1,0,0)" fill="rgb(255,255,255)"/></clipPath><g clip-path="url(#_clipPath_1Qgqq0ZDVSE4Raww6xBEouk2LVHriUfq)"><g id="Group"><g id="Group"><g id="XMLID_261_"><path d=" M 32.3 0 L 0 0 L 92.3 160 L 108.5 132 L 32.3 0 L 32.3 0 L 32.3 0 Z " fill="rgb(255,255,255)"/><path d=" M 120.9 91 L 68.3 0 L 36.1 0 L 110.4 128.8 L 120.9 110.6 C 122.6 107.8 123.7 104.4 123.7 100.8 C 123.6 97.2 122.6 93.9 120.9 91 L 120.9 91 L 120.9 91 L 120.9 91 Z " fill="rgb(255,255,255)"/><path d=" M 56.3 104.1 L 0.9 200 L 33.2 200 L 72.5 132 L 56.3 104.1 L 56.3 104.1 L 56.3 104.1 Z " fill="rgb(255,255,255)"/><path d=" M 74.3 135.3 L 37 200 L 69.2 200 L 90.5 163.2 L 74.3 135.3 L 74.3 135.3 L 74.3 135.3 Z " fill="rgb(255,255,255)"/></g><g id="Group"><g id="Group"><g transform="matrix(1,0,0,1,147.632,28)"><text transform="matrix(1,0,0,1,0,60.328)" style="font-family:&quot;Gregory Packaging&quot;;font-weight:400;font-size:72px;font-style:normal;fill:#FFFFFF;stroke:none;">GDG DEVFEST            </text></g></g><g id="Group"><g transform="matrix(1,0,0,1,304,100)"><text transform="matrix(1,0,0,1,0,60.328)" style="font-family:&quot;Gregory Packaging&quot;;font-weight:400;font-size:72px;font-style:normal;fill:#FFFFFF;stroke:none;">GHANA 2017</text></g></g></g></g></g></g></g></g></g></svg>